<mxfile host="app.diagrams.net" modified="2024-01-24T19:03:23.445Z" agent="Mozilla/5.0 (Windows NT 10.0; Win64; x64) AppleWebKit/537.36 (KHTML, like Gecko) Chrome/120.0.0.0 Safari/537.36" etag="3ERxGz_DBSG0Ciy94A4f" version="22.1.21" type="github">
  <diagram id="prtHgNgQTEPvFCAcTncT" name="Page-1">
    <mxGraphModel dx="2081" dy="658" grid="1" gridSize="10" guides="1" tooltips="1" connect="1" arrows="1" fold="1" page="1" pageScale="1" pageWidth="827" pageHeight="1169" math="0" shadow="0">
      <root>
        <mxCell id="0" />
        <mxCell id="1" parent="0" />
        <mxCell id="eSLpMFx2EpLhXShJvHgx-1" value="&lt;div style=&quot;&quot;&gt;&lt;span style=&quot;white-space: pre;&quot;&gt;&#x9;&lt;/span&gt;&lt;span style=&quot;white-space: pre;&quot;&gt;&#x9;&lt;/span&gt;&lt;span style=&quot;white-space: pre;&quot;&gt;&#x9;&lt;/span&gt;&lt;span style=&quot;white-space: pre;&quot;&gt;&#x9;&lt;/span&gt;&lt;span style=&quot;white-space: pre;&quot;&gt;&#x9;&lt;/span&gt;&amp;nbsp; &lt;font style=&quot;font-size: 14px;&quot;&gt;work&lt;br&gt;&lt;/font&gt;&lt;/div&gt;&lt;div style=&quot;&quot;&gt;&lt;font size=&quot;3&quot;&gt;&lt;span style=&quot;white-space: pre;&quot;&gt;&#x9;&lt;/span&gt;&lt;span style=&quot;white-space: pre;&quot;&gt;&#x9;&lt;span style=&quot;white-space: pre;&quot;&gt;&#x9;&lt;/span&gt;&lt;/span&gt;&amp;nbsp; &amp;nbsp; &quot;staged&quot;&lt;br&gt;&lt;/font&gt;&lt;/div&gt;&lt;div style=&quot;&quot;&gt;&lt;font size=&quot;3&quot;&gt;&lt;br&gt;&lt;/font&gt;&lt;/div&gt;&lt;div style=&quot;&quot;&gt;&lt;font size=&quot;3&quot;&gt;&lt;br&gt;&lt;/font&gt;&lt;/div&gt;&lt;div style=&quot;&quot;&gt;&lt;br&gt;&lt;/div&gt;&lt;div style=&quot;&quot;&gt;&lt;span style=&quot;background-color: initial;&quot;&gt;&lt;font size=&quot;3&quot;&gt;&amp;nbsp; &amp;nbsp; &amp;nbsp; version control&amp;nbsp;&lt;/font&gt;&lt;/span&gt;&lt;/div&gt;&lt;div style=&quot;&quot;&gt;&lt;span style=&quot;background-color: initial;&quot;&gt;&lt;font size=&quot;3&quot;&gt;&amp;nbsp; &amp;nbsp; &amp;nbsp; info&lt;/font&gt;&lt;/span&gt;&lt;/div&gt;" style="rounded=0;whiteSpace=wrap;html=1;fillColor=none;align=left;" vertex="1" parent="1">
          <mxGeometry x="50" y="100" width="310" height="160" as="geometry" />
        </mxCell>
        <mxCell id="eSLpMFx2EpLhXShJvHgx-4" style="edgeStyle=orthogonalEdgeStyle;rounded=0;orthogonalLoop=1;jettySize=auto;html=1;exitX=1;exitY=0.5;exitDx=0;exitDy=0;entryX=0;entryY=0.5;entryDx=0;entryDy=0;" edge="1" parent="1">
          <mxGeometry relative="1" as="geometry">
            <mxPoint x="160" y="161" as="sourcePoint" />
            <mxPoint x="255" y="161" as="targetPoint" />
          </mxGeometry>
        </mxCell>
        <mxCell id="eSLpMFx2EpLhXShJvHgx-2" value="local project files" style="whiteSpace=wrap;html=1;aspect=fixed;" vertex="1" parent="1">
          <mxGeometry x="80" y="122" width="80" height="80" as="geometry" />
        </mxCell>
        <mxCell id="eSLpMFx2EpLhXShJvHgx-3" value="local projects" style="whiteSpace=wrap;html=1;aspect=fixed;" vertex="1" parent="1">
          <mxGeometry x="255" y="122" width="80" height="80" as="geometry" />
        </mxCell>
        <mxCell id="eSLpMFx2EpLhXShJvHgx-5" value="&lt;font style=&quot;font-size: 18px;&quot;&gt;repo on local machine&lt;/font&gt;" style="text;html=1;align=center;verticalAlign=middle;resizable=0;points=[];autosize=1;strokeColor=none;fillColor=none;" vertex="1" parent="1">
          <mxGeometry x="37" y="65" width="200" height="40" as="geometry" />
        </mxCell>
        <mxCell id="eSLpMFx2EpLhXShJvHgx-6" style="edgeStyle=orthogonalEdgeStyle;rounded=0;orthogonalLoop=1;jettySize=auto;html=1;exitX=0.5;exitY=1;exitDx=0;exitDy=0;entryX=1;entryY=0.75;entryDx=0;entryDy=0;" edge="1" parent="1" source="eSLpMFx2EpLhXShJvHgx-3" target="eSLpMFx2EpLhXShJvHgx-2">
          <mxGeometry relative="1" as="geometry" />
        </mxCell>
        <mxCell id="eSLpMFx2EpLhXShJvHgx-7" value="&lt;font style=&quot;font-size: 14px;&quot;&gt;commit&lt;/font&gt;" style="text;html=1;align=center;verticalAlign=middle;resizable=0;points=[];autosize=1;strokeColor=none;fillColor=none;" vertex="1" parent="1">
          <mxGeometry x="215" y="219" width="70" height="30" as="geometry" />
        </mxCell>
        <mxCell id="eSLpMFx2EpLhXShJvHgx-10" value="&lt;font style=&quot;font-size: 18px;&quot;&gt;repo on github&lt;/font&gt;" style="text;html=1;align=center;verticalAlign=middle;resizable=0;points=[];autosize=1;strokeColor=none;fillColor=none;" vertex="1" parent="1">
          <mxGeometry x="38" y="285" width="140" height="40" as="geometry" />
        </mxCell>
        <mxCell id="eSLpMFx2EpLhXShJvHgx-11" value="&lt;div style=&quot;&quot;&gt;&lt;br&gt;&lt;/div&gt;" style="rounded=0;whiteSpace=wrap;html=1;fillColor=none;align=left;" vertex="1" parent="1">
          <mxGeometry x="50" y="321" width="310" height="119" as="geometry" />
        </mxCell>
        <mxCell id="eSLpMFx2EpLhXShJvHgx-12" value="project files" style="whiteSpace=wrap;html=1;aspect=fixed;" vertex="1" parent="1">
          <mxGeometry x="80" y="341" width="80" height="80" as="geometry" />
        </mxCell>
        <mxCell id="eSLpMFx2EpLhXShJvHgx-14" value="&lt;font style=&quot;font-size: 18px;&quot;&gt;push&lt;/font&gt;" style="text;html=1;align=center;verticalAlign=middle;resizable=0;points=[];autosize=1;strokeColor=none;fillColor=none;rotation=-90;" vertex="1" parent="1">
          <mxGeometry x="-46" y="275" width="60" height="40" as="geometry" />
        </mxCell>
        <mxCell id="eSLpMFx2EpLhXShJvHgx-16" style="edgeStyle=orthogonalEdgeStyle;rounded=0;orthogonalLoop=1;jettySize=auto;html=1;exitX=0.998;exitY=0.619;exitDx=0;exitDy=0;entryX=1;entryY=0.5;entryDx=0;entryDy=0;exitPerimeter=0;strokeColor=#CC99FF;" edge="1" parent="1" source="eSLpMFx2EpLhXShJvHgx-11" target="eSLpMFx2EpLhXShJvHgx-1">
          <mxGeometry relative="1" as="geometry">
            <Array as="points">
              <mxPoint x="359" y="380" />
              <mxPoint x="410" y="380" />
              <mxPoint x="410" y="180" />
            </Array>
          </mxGeometry>
        </mxCell>
        <mxCell id="eSLpMFx2EpLhXShJvHgx-17" value="&lt;font style=&quot;font-size: 18px;&quot;&gt;pull&lt;/font&gt;" style="text;html=1;align=center;verticalAlign=middle;resizable=0;points=[];autosize=1;strokeColor=none;fillColor=none;rotation=90;" vertex="1" parent="1">
          <mxGeometry x="398" y="275" width="50" height="40" as="geometry" />
        </mxCell>
        <mxCell id="eSLpMFx2EpLhXShJvHgx-18" style="edgeStyle=orthogonalEdgeStyle;rounded=0;orthogonalLoop=1;jettySize=auto;html=1;exitX=0;exitY=0.5;exitDx=0;exitDy=0;entryX=0;entryY=0.5;entryDx=0;entryDy=0;fillColor=#33FF33;strokeColor=#33FF33;" edge="1" parent="1" source="eSLpMFx2EpLhXShJvHgx-1" target="eSLpMFx2EpLhXShJvHgx-11">
          <mxGeometry relative="1" as="geometry">
            <mxPoint y="390" as="targetPoint" />
            <Array as="points">
              <mxPoint y="180" />
              <mxPoint y="381" />
            </Array>
          </mxGeometry>
        </mxCell>
      </root>
    </mxGraphModel>
  </diagram>
</mxfile>
